<svg width="219" height="29" viewBox="0 0 219 29" fill="none" xmlns="http://www.w3.org/2000/svg">
<g style="mix-blend-mode:multiply">
<path d="M10.5869 0.613281C12.2161 0.613281 13.7144 0.841146 15.0815 1.29688C16.4487 1.7526 17.6792 2.04883 18.7729 2.18555C18.1691 4.30469 18.1463 6.58903 18.7046 9.03857C18.1235 9.52848 17.457 9.81331 16.7051 9.89307C16.6139 9.6766 16.4487 9.22656 16.2095 8.54297C15.9816 7.84798 15.7594 7.27832 15.543 6.83398C15.3379 6.38965 15.0474 5.88265 14.6714 5.31299C14.3068 4.74333 13.8169 4.29329 13.2017 3.96289C12.5978 3.62109 11.9028 3.38753 11.1167 3.26221C9.96598 3.36475 9.07731 3.71794 8.45068 4.32178C7.82406 4.92562 7.51074 5.70605 7.51074 6.66309C7.51074 7.6429 7.76139 8.45182 8.2627 9.08984C8.764 9.71647 9.41341 10.1893 10.2109 10.5083C11.0199 10.8159 11.9085 11.0894 12.877 11.3286C13.8454 11.5565 14.8081 11.8413 15.7651 12.1831C16.7222 12.5135 17.5994 12.9521 18.397 13.499C19.2059 14.0345 19.861 14.8377 20.3623 15.9087C20.8636 16.9797 21.1143 18.2842 21.1143 19.8223C21.1143 21.6908 20.5731 23.2972 19.4907 24.6416C18.4084 25.986 17.1323 26.9487 15.6626 27.5298C14.1929 28.1108 12.689 28.4014 11.1509 28.4014C7.76709 28.4014 4.41748 27.6551 1.10205 26.1626C1.17041 24.6929 1.20459 23.7928 1.20459 23.4624C1.20459 21.6167 1.02799 19.6343 0.674805 17.5151C1.7002 17.0252 2.84521 17.0024 4.10986 17.4468C4.53141 20.033 5.34603 22.0155 6.55371 23.394C7.77279 24.7726 9.10579 25.5417 10.5527 25.7012C11.9085 25.61 12.951 25.1714 13.6802 24.3853C14.4207 23.5877 14.791 22.5794 14.791 21.3604C14.791 20.335 14.5518 19.4691 14.0732 18.7627C13.5947 18.0449 12.9624 17.4924 12.1763 17.105C11.3901 16.7062 10.5356 16.3473 9.61279 16.0283C8.70133 15.7093 7.77848 15.3732 6.84424 15.02C5.90999 14.6554 5.0498 14.2225 4.26367 13.7212C3.48893 13.2199 2.8623 12.5192 2.38379 11.6191C1.90527 10.7191 1.66602 9.62533 1.66602 8.33789C1.66602 7.17578 1.84831 6.1333 2.21289 5.21045C2.58887 4.2876 3.07308 3.54704 3.66553 2.98877C4.26937 2.4305 4.97005 1.96338 5.76758 1.5874C6.5765 1.21143 7.37402 0.955078 8.16016 0.818359C8.95768 0.681641 9.7666 0.613281 10.5869 0.613281ZM10.5869 1.31396C9.62988 1.31396 8.70133 1.4279 7.80127 1.65576C6.9012 1.87223 6.02393 2.23112 5.16943 2.73242C4.32633 3.23372 3.64844 3.96859 3.13574 4.93701C2.62305 5.90544 2.3667 7.03906 2.3667 8.33789C2.3667 9.48861 2.60596 10.4798 3.08447 11.3115C3.56299 12.1318 4.18962 12.7699 4.96436 13.2256C5.75049 13.6813 6.61068 14.0858 7.54492 14.439C8.47917 14.7808 9.40202 15.1283 10.3135 15.4814C11.2363 15.8346 12.0908 16.2334 12.877 16.6777C13.6631 17.1221 14.2954 17.743 14.7739 18.5405C15.2524 19.3267 15.4917 20.2666 15.4917 21.3604C15.4917 22.8757 15.0075 24.1004 14.0391 25.0347C13.0706 25.9689 11.6978 26.436 9.92041 26.436C8.21143 26.436 6.62207 25.724 5.15234 24.2998C3.68262 22.8757 2.71419 20.7451 2.24707 17.9082C2.01921 17.7601 1.75146 17.7601 1.44385 17.9082C1.75146 19.6969 1.90527 21.5483 1.90527 23.4624C1.90527 23.9979 1.88249 24.7555 1.83691 25.7354C4.66243 27.0456 7.35693 27.7007 9.92041 27.7007C12.0396 27.7007 13.9992 27.0741 15.7993 25.8208C17.5994 24.5562 18.4995 22.7902 18.4995 20.5229C18.4995 19.2355 18.2489 18.1475 17.7476 17.2588C17.2463 16.3587 16.5911 15.658 15.7822 15.1567C14.9733 14.6554 14.0846 14.2225 13.1162 13.8579C12.1478 13.4933 11.1851 13.1515 10.228 12.8325C9.271 12.5021 8.38802 12.1375 7.5791 11.7388C6.78158 11.34 6.13216 10.776 5.63086 10.0469C5.12956 9.30632 4.87891 8.41195 4.87891 7.36377C4.87891 5.89404 5.37451 4.72054 6.36572 3.84326C7.35693 2.96598 8.764 2.52734 10.5869 2.52734C13.7542 2.52734 15.936 4.72054 17.1323 9.10693C17.4855 9.1639 17.7305 9.08415 17.8672 8.86768C17.4912 6.08773 16.6652 4.13379 15.3892 3.00586C14.1245 1.87793 12.5238 1.31396 10.5869 1.31396ZM40.877 2.01465H32.2808C30.8566 2.01465 28.8571 1.96908 26.2822 1.87793V2.68115C28.9027 2.9318 30.2243 3.47868 30.2471 4.32178C30.361 6.99919 30.418 10.1836 30.418 13.875C30.418 17.4867 30.3496 21.0812 30.2129 24.6587C30.1901 25.5018 28.8685 26.0487 26.248 26.2993C26.2025 26.6981 26.2025 26.9658 26.248 27.1025C28.4469 27.0342 33.5568 27 41.5776 27C44.3804 27 46.4881 26.5215 47.9009 25.5645C49.3136 24.6074 50.5897 22.9611 51.729 20.6255C51.6379 20.4432 51.4385 20.2951 51.1309 20.1812C49.0573 24.0321 45.2349 25.9575 39.6636 25.9575H33.4941C33.3802 20.9787 33.3232 17.3385 33.3232 15.0371L38.8945 15.0029C39.3844 15.0029 39.8402 15.0827 40.2617 15.2422C40.6947 15.4017 41.0365 15.5669 41.2871 15.7378C41.5492 15.8973 41.8511 16.2106 42.1929 16.6777C42.5347 17.1449 42.7739 17.4867 42.9106 17.7031C43.0474 17.9082 43.2866 18.3411 43.6284 19.002C43.9702 19.6628 44.1981 20.09 44.312 20.2837C44.6652 20.1356 44.8874 19.9818 44.9785 19.8223C43.8392 17.8854 43.2695 16.1024 43.2695 14.4731C43.2695 13.7668 43.429 12.9066 43.748 11.8926C44.0785 10.8786 44.4886 9.95003 44.9785 9.10693C44.8874 8.94743 44.6652 8.79932 44.312 8.6626C44.2209 8.8221 44.0386 9.1639 43.7651 9.68799C43.5031 10.2121 43.3265 10.5539 43.2354 10.7134C43.1556 10.8615 42.9904 11.1406 42.7397 11.5508C42.5005 11.9609 42.3125 12.2344 42.1758 12.3711C42.0391 12.5078 41.834 12.7129 41.5605 12.9863C41.2985 13.2484 41.0422 13.4307 40.7915 13.5332C40.5522 13.6243 40.2674 13.7098 39.937 13.7896C39.6066 13.8693 39.2591 13.9092 38.8945 13.9092C36.445 13.9092 34.5879 13.8864 33.3232 13.8408C33.3232 11.0837 33.3916 7.4891 33.5283 3.05713H38.9629C44.5342 3.05713 48.3566 4.98258 50.4302 8.8335C50.7378 8.71956 50.9372 8.56576 51.0283 8.37207C49.889 6.04785 48.613 4.40723 47.2002 3.4502C45.7874 2.49316 43.6797 2.01465 40.877 2.01465ZM43.2354 9.22656L43.9702 7.79102C44.9272 8.13281 45.5311 8.57145 45.7817 9.10693C45.269 9.99561 44.8361 10.9583 44.4829 11.9951C44.1411 13.0205 43.9702 13.8465 43.9702 14.4731C43.9702 15.9884 44.5741 17.7715 45.7817 19.8223C45.5083 20.4033 44.9272 20.8477 44.0386 21.1553C43.617 20.4603 43.3094 19.9248 43.1157 19.5488C42.6486 18.7741 42.2783 18.1987 42.0049 17.8228C41.7428 17.4354 41.3441 17.048 40.8086 16.6606C40.2731 16.2733 39.6807 16.0682 39.0312 16.0454H35.9551C35.9551 18.5633 36.0007 21.6338 36.0918 25.2568H39.6294C42.5233 25.2568 44.876 24.6929 46.6875 23.5649C48.5104 22.4256 49.889 21.0015 50.8232 19.2925C51.7803 19.6457 52.3841 20.09 52.6348 20.6255C51.1423 23.0978 50.2593 25.4562 49.9858 27.7007H35.8013C31.3009 27.7007 27.957 27.7349 25.7695 27.8032C25.5303 27.0627 25.5189 26.3392 25.7354 25.6328C28.2305 25.3822 29.4894 25.0461 29.5122 24.6245C29.6489 21.047 29.7173 17.4639 29.7173 13.875C29.7173 10.2064 29.6603 7.03337 29.5464 4.35596C29.5236 3.93441 28.2533 3.59831 25.7354 3.34766C25.5189 2.55013 25.5417 1.81527 25.8037 1.14307C29.3014 1.257 31.62 1.31396 32.7593 1.31396H49.2852C49.5586 3.54704 50.4473 5.89974 51.9512 8.37207C51.6891 8.91895 51.0796 9.36328 50.1226 9.70508C49.1883 8.00749 47.8097 6.59473 45.9868 5.4668C44.1753 4.32747 41.8226 3.75781 38.9287 3.75781H36.126C36.012 7.84798 35.9551 10.9868 35.9551 13.1743C36.6729 13.1971 37.7096 13.2085 39.0654 13.2085C40.0225 13.2085 40.7858 12.8895 41.3555 12.2515C41.9251 11.6021 42.5518 10.5938 43.2354 9.22656ZM64.6045 3.05713H64.6387C65.3451 3.01156 66.2565 2.98877 67.373 2.98877C69.1048 2.98877 70.4264 3.52425 71.3379 4.59521C72.2607 5.66618 72.7222 7.05615 72.7222 8.76514C72.7222 10.4969 72.3006 12.0008 71.4575 13.2769C70.6258 14.5415 69.3213 15.1738 67.5439 15.1738C66.4958 15.1738 65.459 15.0428 64.4336 14.7808C64.4336 10.7703 64.4906 6.86247 64.6045 3.05713ZM72.0215 8.76514C72.0215 7.29541 71.5771 6.05924 70.6885 5.05664C69.8112 4.05404 68.6491 3.6097 67.2021 3.72363C67.111 8.11003 67.0654 11.6248 67.0654 14.2681C67.2933 14.3364 67.6408 14.3934 68.1079 14.439C69.4409 14.2909 70.4264 13.6642 71.0645 12.5591C71.7025 11.4539 72.0215 10.1893 72.0215 8.76514ZM61.3232 24.6587C61.3005 25.5018 59.9788 26.0487 57.3584 26.2993C57.2673 26.4816 57.2673 26.7493 57.3584 27.1025C59.2952 27.0342 61.2834 27 63.3228 27C65.7495 27 68.0794 27.0342 70.3125 27.1025C70.4036 26.9202 70.4036 26.6525 70.3125 26.2993C66.5299 26.0715 64.6273 25.5246 64.6045 24.6587C64.4906 21.4572 64.4336 18.5975 64.4336 16.0796C65.721 16.3416 66.9116 16.4727 68.0054 16.4727C69.8739 19.9476 72.3348 23.4567 75.3882 27C75.9692 27 76.8066 27.0057 77.9004 27.0171C79.0055 27.0285 79.9967 27.0399 80.874 27.0513C81.7627 27.0627 82.6058 27.0798 83.4033 27.1025C83.4945 26.8975 83.4945 26.6297 83.4033 26.2993C81.5348 26.1626 79.9569 25.7069 78.6694 24.9321C77.3934 24.146 75.9009 22.6991 74.1919 20.5913C73.0298 19.1216 71.9816 17.5721 71.0474 15.9429C72.7336 15.3846 74.0609 14.4561 75.0293 13.1572C75.9977 11.8584 76.4819 10.3944 76.4819 8.76514C76.4819 6.71436 75.8211 5.05664 74.4995 3.79199C73.1779 2.51595 71.3493 1.87793 69.0137 1.87793C61.3118 1.96908 57.4382 1.96908 57.3926 1.87793C57.3242 2.15137 57.3242 2.41911 57.3926 2.68115C60.013 2.9318 61.3346 3.47868 61.3574 4.32178C61.4714 6.99919 61.5283 10.1836 61.5283 13.875C61.5283 17.4867 61.46 21.0812 61.3232 24.6587ZM60.6226 24.6245C60.7593 21.7762 60.8276 18.193 60.8276 13.875C60.8276 10.2064 60.7707 7.03337 60.6567 4.35596C60.634 3.93441 59.3636 3.59831 56.8457 3.34766C56.652 2.5957 56.6748 1.86084 56.9141 1.14307C58.1673 1.21143 59.5288 1.24561 60.9985 1.24561C62.4683 1.24561 64.1545 1.23421 66.0571 1.21143C67.9598 1.18864 69.3555 1.17725 70.2441 1.17725C73.0013 1.17725 75.166 1.87793 76.7383 3.2793C78.3105 4.66927 79.0967 6.49788 79.0967 8.76514C79.0967 10.3716 78.6353 11.8527 77.7124 13.2085C76.7896 14.5643 75.5477 15.5897 73.9868 16.2847C74.7616 17.5493 75.6616 18.8481 76.687 20.1812C77.8947 21.7876 79.0796 23.0636 80.2417 24.0093C81.4152 24.9549 82.714 25.4961 84.1382 25.6328C84.3205 26.362 84.2977 27.0968 84.0698 27.8374C82.4406 27.7918 79.4442 27.7463 75.0806 27.7007C71.8791 23.9637 69.3783 20.4546 67.5781 17.1733H67.0654C67.0654 19.2925 67.1224 21.7762 67.2363 24.6245C67.2363 24.6929 67.2648 24.7612 67.3218 24.8296C67.3787 24.8979 67.6009 25.0062 67.9883 25.1543C68.3757 25.3024 68.9624 25.4334 69.7485 25.5474C70.5461 25.6499 70.9904 25.7126 71.0815 25.7354C71.2752 26.3734 71.241 27.0741 70.979 27.8374C66.7749 27.7463 64.2228 27.7007 63.3228 27.7007C62.7075 27.7007 60.5599 27.7463 56.8799 27.8374C56.5951 27.0513 56.5951 26.3164 56.8799 25.6328C59.3522 25.3822 60.5998 25.0461 60.6226 24.6245ZM114.907 3.34766C113.767 3.4388 112.862 3.58122 112.189 3.7749C111.529 3.95719 111.09 4.30469 110.874 4.81738L101.474 28.1963H99.7139L89.5967 5.05664C89.1751 4.1224 87.8592 3.55273 85.6489 3.34766C85.4552 2.5957 85.478 1.86084 85.7173 1.14307C90.9924 1.30257 95.5667 1.32536 99.4404 1.21143C99.6683 1.86084 99.6683 2.58431 99.4404 3.38184C97.9707 3.49577 97.0479 3.62109 96.6719 3.75781C96.2959 3.89453 96.1877 4.17367 96.3472 4.59521L102.209 18.2158L107.626 4.59521C107.695 4.41292 107.644 4.25342 107.473 4.1167C107.313 3.96859 107.04 3.84896 106.652 3.75781C106.276 3.66667 105.895 3.59261 105.507 3.53564C105.12 3.47868 104.647 3.42741 104.089 3.38184C103.907 2.62988 103.929 1.89502 104.157 1.17725C107.917 1.31396 111.477 1.30257 114.838 1.14307C115.066 1.86084 115.089 2.5957 114.907 3.34766ZM114.343 2.68115C114.434 2.35075 114.434 2.08301 114.343 1.87793C112.85 1.94629 111.324 1.98047 109.763 1.98047C108.27 1.98047 106.578 1.94629 104.687 1.87793C104.596 2.08301 104.596 2.35075 104.687 2.68115C105.2 2.72673 105.627 2.7723 105.969 2.81787C106.322 2.86344 106.749 2.94889 107.25 3.07422C107.752 3.19954 108.099 3.39323 108.293 3.65527C108.498 3.91732 108.532 4.21924 108.396 4.56104L101.32 22.3516L93.7666 4.7832C93.4362 4.00846 93.5672 3.50716 94.1597 3.2793C94.7635 3.04004 96.3016 2.84066 98.7739 2.68115C98.8651 2.35075 98.8651 2.08301 98.7739 1.87793C95.4129 2.03743 91.2259 2.03743 86.2129 1.87793C86.1104 2.08301 86.1104 2.35075 86.2129 2.68115C88.3548 2.88623 89.6935 3.58691 90.229 4.7832L100.175 27.4956H100.979L110.224 4.56104C110.543 3.91162 111.044 3.46159 111.728 3.21094C112.423 2.94889 113.295 2.7723 114.343 2.68115ZM125.697 24.6587C125.606 19.8963 125.561 16.3018 125.561 13.875C125.561 11.0723 125.618 7.88786 125.731 4.32178C125.754 3.45589 127.657 2.90902 131.439 2.68115C131.508 2.46468 131.508 2.19694 131.439 1.87793C128.454 1.96908 126.125 2.01465 124.45 2.01465C123.048 2.01465 121.06 1.96908 118.485 1.87793C118.394 2.08301 118.394 2.35075 118.485 2.68115C121.106 2.9318 122.427 3.47868 122.45 4.32178C122.564 6.99919 122.621 10.1836 122.621 13.875C122.621 17.4867 122.553 21.0812 122.416 24.6587C122.393 25.5018 121.072 26.0487 118.451 26.2993C118.36 26.4816 118.36 26.7493 118.451 27.1025C120.388 27.0342 122.376 27 124.416 27C126.842 27 129.172 27.0342 131.405 27.1025C131.496 26.9202 131.496 26.6525 131.405 26.2993C127.623 26.0715 125.72 25.5246 125.697 24.6587ZM117.938 3.34766C117.745 2.5957 117.768 1.86084 118.007 1.14307C119.009 1.14307 120.365 1.17155 122.074 1.22852C123.795 1.28548 124.991 1.31396 125.663 1.31396C126.153 1.31396 127.099 1.30257 128.5 1.27979C129.901 1.257 131.115 1.24561 132.14 1.24561C132.357 1.89502 132.368 2.5957 132.174 3.34766C129.656 3.59831 128.386 3.93441 128.363 4.35596C128.227 7.20426 128.158 10.7988 128.158 15.1396C128.158 19.3324 128.215 22.494 128.329 24.6245C128.329 24.6929 128.358 24.7612 128.415 24.8296C128.472 24.8979 128.551 24.9549 128.654 25.0005C128.768 25.0461 128.882 25.0973 128.996 25.1543C129.11 25.1999 129.263 25.2454 129.457 25.291C129.662 25.3366 129.833 25.3765 129.97 25.4106C130.106 25.4448 130.289 25.479 130.517 25.5132C130.756 25.5474 130.944 25.5758 131.081 25.5986C131.229 25.6214 131.422 25.6442 131.662 25.667C131.912 25.6898 132.083 25.7126 132.174 25.7354C132.368 26.3734 132.334 27.0741 132.072 27.8374C127.868 27.7463 125.316 27.7007 124.416 27.7007C123.8 27.7007 121.653 27.7463 117.973 27.8374C117.688 27.0513 117.688 26.3164 117.973 25.6328C120.445 25.3822 121.693 25.0461 121.715 24.6245C121.852 21.7762 121.92 18.193 121.92 13.875C121.92 10.2064 121.863 7.03337 121.75 4.35596C121.727 3.93441 120.456 3.59831 117.938 3.34766ZM143.854 3.05713C144.788 3.01156 145.454 2.98877 145.853 2.98877C150.012 2.98877 152.091 5.09082 152.091 9.29492C152.091 11.1064 151.686 12.5363 150.877 13.5845C150.069 14.6213 148.861 15.1396 147.254 15.1396C146.047 15.1396 144.879 14.9289 143.751 14.5073C143.751 10.9868 143.785 7.17008 143.854 3.05713ZM139.803 24.6245C139.94 21.7762 140.008 18.193 140.008 13.875C140.008 10.2064 139.951 7.03337 139.837 4.35596C139.815 3.93441 138.544 3.59831 136.026 3.34766C135.833 2.5957 135.855 1.86084 136.095 1.14307C137.302 1.18864 138.601 1.21712 139.991 1.22852C141.381 1.23991 142.976 1.23421 144.776 1.21143C146.588 1.18864 147.915 1.17725 148.758 1.17725C151.914 1.17725 154.318 1.91781 155.97 3.39893C157.622 4.88005 158.448 6.85677 158.448 9.3291C158.448 11.8242 157.531 13.7782 155.697 15.1909C153.874 16.6037 151.504 17.3101 148.587 17.3101C147.767 17.3101 147.032 17.236 146.383 17.0879C146.383 20.3122 146.417 22.8358 146.485 24.6587C146.485 24.7271 146.565 24.8182 146.725 24.9321C146.896 25.0461 147.14 25.1543 147.459 25.2568C147.79 25.3594 148.32 25.4619 149.049 25.5645C149.789 25.6556 150.217 25.7126 150.331 25.7354C150.524 26.3734 150.49 27.0741 150.228 27.8374C146.024 27.7463 143.472 27.7007 142.572 27.7007C141.911 27.7007 139.741 27.7463 136.061 27.8374C135.776 27.0513 135.776 26.3164 136.061 25.6328C138.533 25.3822 139.78 25.0461 139.803 24.6245ZM151.39 9.29492C151.39 5.76302 149.744 3.90592 146.451 3.72363C146.406 6.24154 146.383 9.69368 146.383 14.0801C146.804 14.2738 147.26 14.3934 147.75 14.439C148.935 14.325 149.835 13.8123 150.45 12.9009C151.077 11.9894 151.39 10.7874 151.39 9.29492ZM140.504 24.6587C140.481 25.5018 139.16 26.0487 136.539 26.2993C136.448 26.4816 136.448 26.7493 136.539 27.1025C138.476 27.0342 140.487 27 142.572 27C144.999 27 147.328 27.0342 149.562 27.1025C149.653 26.9202 149.653 26.6525 149.562 26.2993C145.779 26.0715 143.876 25.5246 143.854 24.6587C143.785 21.4344 143.751 18.4323 143.751 15.6523C145.175 16.2904 146.787 16.6094 148.587 16.6094C150.9 16.6094 152.683 15.9315 153.937 14.5757C155.201 13.2199 155.833 11.471 155.833 9.3291C155.833 7.08464 155.121 5.28451 153.697 3.92871C152.273 2.56152 150.217 1.87793 147.528 1.87793C146.696 1.87793 145.528 1.89502 144.024 1.9292C142.521 1.96338 141.17 1.98047 139.974 1.98047C138.789 1.98047 137.656 1.94629 136.573 1.87793C136.482 2.08301 136.482 2.35075 136.573 2.68115C137.086 2.72673 137.507 2.7723 137.838 2.81787C138.168 2.86344 138.573 2.9432 139.051 3.05713C139.53 3.17106 139.889 3.33626 140.128 3.55273C140.379 3.75781 140.515 4.01416 140.538 4.32178C140.652 6.99919 140.709 10.1836 140.709 13.875C140.709 17.4867 140.641 21.0812 140.504 24.6587ZM189.61 26.2993C188.972 26.2651 188.351 26.2196 187.747 26.1626C187.155 26.0942 186.613 26.0031 186.124 25.8892C185.634 25.7752 185.218 25.6271 184.876 25.4448C184.546 25.2511 184.329 25.0119 184.227 24.7271L174.776 1.38232C174.582 1.39372 174.394 1.47347 174.212 1.62158C174.132 3.03434 173.699 4.16797 172.913 5.02246L173.306 6.03076L166.094 24.1631C165.639 25.3024 164.237 26.0145 161.89 26.2993C161.822 26.4588 161.788 26.6012 161.788 26.7266C161.788 26.8633 161.822 27 161.89 27.1367C163.189 27.0911 164.231 27.057 165.018 27.0342C165.815 27.0114 166.362 27 166.658 27C166.92 27 167.513 27.0114 168.436 27.0342C169.37 27.057 170.634 27.0911 172.229 27.1367C172.298 27 172.332 26.8633 172.332 26.7266C172.332 26.6012 172.298 26.4588 172.229 26.2993C171.284 26.2082 170.515 26.1113 169.922 26.0088C169.33 25.8949 168.868 25.7752 168.538 25.6499C168.208 25.5246 167.986 25.3879 167.872 25.2397C167.758 25.0802 167.701 24.9036 167.701 24.71C167.701 24.5846 167.723 24.4593 167.769 24.334L170.264 18.0791C171.529 18.0563 172.549 18.0392 173.323 18.0278C174.109 18.0164 174.651 18.0107 174.947 18.0107C175.596 18.0107 176.172 18.0164 176.673 18.0278C177.186 18.0278 177.624 18.0335 177.989 18.0449L180.467 24.334C180.524 24.5049 180.552 24.6359 180.552 24.7271C180.552 25.0347 180.393 25.3081 180.074 25.5474C179.766 25.7866 179.384 25.9518 178.929 26.043L177.083 26.2993C177.015 26.4588 176.98 26.6012 176.98 26.7266C176.98 26.8633 177.015 27 177.083 27.1367C178.051 27.1025 179.031 27.0741 180.022 27.0513C181.025 27.0285 182.05 27.0171 183.099 27.0171C184.147 27.0171 185.206 27.0285 186.277 27.0513C187.36 27.0741 188.471 27.1025 189.61 27.1367C189.69 26.9772 189.729 26.8405 189.729 26.7266C189.729 26.6582 189.718 26.5898 189.695 26.5215C189.673 26.4531 189.644 26.3791 189.61 26.2993ZM174.947 16.6777C173.295 16.6777 171.933 16.6549 170.862 16.6094L174.109 8.23535H174.178L177.442 16.6436C176.827 16.6663 175.995 16.6777 174.947 16.6777ZM174.144 10.0298L171.871 15.9429C173.249 16.0112 174.764 16.0226 176.417 15.9771L174.144 10.0298ZM190.14 25.667C190.424 26.3506 190.413 27.0741 190.105 27.8374H176.553C176.28 27.0513 176.28 26.3278 176.553 25.667C177.795 25.5986 178.672 25.4733 179.185 25.291C179.698 25.0973 179.874 24.7897 179.715 24.3682L177.476 18.7114C175.368 18.6317 173.112 18.6545 170.708 18.7798L168.504 24.4365C168.436 24.6302 168.487 24.8068 168.658 24.9663C168.84 25.1144 169.131 25.234 169.529 25.3252C169.928 25.4163 170.395 25.4904 170.931 25.5474C171.466 25.6043 172.07 25.6442 172.742 25.667C173.027 26.3506 173.016 27.0741 172.708 27.8374C168.971 27.7007 165.206 27.7007 161.412 27.8374C161.104 27.0741 161.093 26.3506 161.377 25.667C163.724 25.3936 165.052 24.8809 165.359 24.1289L172.571 5.99658C172.526 5.90544 172.435 5.70036 172.298 5.38135C172.173 5.05094 172.098 4.83447 172.076 4.73193C172.964 3.83187 173.454 2.66976 173.545 1.24561C174.548 0.755697 175.727 0.476562 177.083 0.408203L186.67 24.1973C186.887 24.7327 187.229 25.0916 187.696 25.2739C188.163 25.4448 188.978 25.5758 190.14 25.667ZM209.099 24.5903C209.122 25.0119 210.392 25.348 212.91 25.5986C213.07 26.2708 213.047 26.9943 212.842 27.769C209.709 27.7235 207.35 27.7007 205.767 27.7007C204.206 27.7007 201.859 27.7235 198.726 27.769C198.361 27.0968 198.361 26.3734 198.726 25.5986C201.209 25.348 202.463 25.0233 202.485 24.6245C202.599 21.4686 202.668 18.6431 202.69 16.1479L196.316 5.05664C195.758 4.1224 194.442 3.55273 192.368 3.34766C192.277 2.99447 192.231 2.65267 192.231 2.32227C192.231 1.96908 192.3 1.5874 192.437 1.17725C194.84 1.26839 197.672 1.31396 200.93 1.31396C203.289 1.31396 205.032 1.29118 206.16 1.24561C206.274 1.63298 206.331 1.96908 206.331 2.25391C206.331 2.58431 206.274 2.96029 206.16 3.38184C204.941 3.47298 204.097 3.57552 203.63 3.68945C203.163 3.80339 202.93 3.97998 202.93 4.21924C202.93 4.2876 204.32 6.81689 207.1 11.8071C210.199 6.65739 211.748 4.05404 211.748 3.99707C211.748 3.88314 211.68 3.7806 211.543 3.68945C211.406 3.59831 211.218 3.52425 210.979 3.46729C210.751 3.41032 210.535 3.37044 210.33 3.34766C210.136 3.32487 209.908 3.30208 209.646 3.2793C209.395 3.24512 209.247 3.22803 209.202 3.22803C209.008 2.62419 209.042 1.94059 209.304 1.17725C211.401 1.26839 212.961 1.31396 213.987 1.31396C214.944 1.31396 216.334 1.26839 218.157 1.17725C218.419 1.96338 218.419 2.68685 218.157 3.34766C216.402 3.50716 215.246 4.03125 214.688 4.91992L208.911 14.1826C208.911 18.8083 208.974 22.2775 209.099 24.5903ZM203.186 24.6587C203.152 25.5018 201.83 26.0487 199.221 26.2993C199.107 26.5841 199.107 26.8633 199.221 27.1367C204.257 27.0456 208.575 27.0342 212.175 27.1025C212.266 26.8747 212.266 26.5955 212.175 26.2651C208.393 26.0373 206.49 25.5018 206.467 24.6587C206.353 21.3888 206.296 18.8538 206.296 17.0537L214.106 4.56104C214.779 3.46729 215.964 2.84066 217.661 2.68115C217.764 2.48747 217.764 2.21973 217.661 1.87793C216.385 1.94629 215.092 1.98047 213.782 1.98047C212.597 1.98047 211.27 1.94629 209.8 1.87793C209.697 2.06022 209.697 2.32796 209.8 2.68115C211.475 2.86344 212.369 3.23372 212.483 3.79199C212.528 4.00846 212.46 4.26481 212.278 4.56104L206.091 14.7808L200.486 4.7832C200.087 4.03125 200.207 3.53564 200.845 3.29639C201.494 3.04574 203.044 2.84066 205.493 2.68115C205.584 2.35075 205.584 2.08301 205.493 1.87793C202.132 2.03743 197.939 2.03743 192.915 1.87793C192.824 2.08301 192.824 2.35075 192.915 2.68115C194.932 2.86344 196.276 3.56413 196.948 4.7832L203.391 16.0112C203.368 18.6886 203.3 21.5711 203.186 24.6587Z" fill="#0B0A0A"/>
</g>
</svg>
